<svg xmlns="http://www.w3.org/2000/svg" xmlns:xlink="http://www.w3.org/1999/xlink" version="1.1" x="0" y="0" viewBox="25.69999885559082 31.300003051757812 38.70000457763672 27.39999771118164" enable-background="new 0 0 90 90" xml:space="preserve" height="162.79521804878047" width="229.93343832047617" class="icon-icon-0" data-fill-palette-color="accent" id="icon-0"><path d="M46.4 56.3c-0.4 0.2-0.9 0.4-1.4 0.4s-1-0.1-1.4-0.4l0 0-10.3-4.8v4.4c0 1.6 1.3 2.8 2.8 2.8h17.7c1.6 0 2.8-1.3 2.8-2.8V51L46.4 56.3 46.4 56.3z" fill="#8a2be2" data-fill-palette-color="accent"></path><path d="M62.7 39.4L62.7 39.4l-0.1-0.1c-0.1-0.1-0.3-0.1-0.4-0.2l-15.8-7.4 0 0c-0.4-0.2-0.9-0.4-1.4-0.4s-1 0.1-1.4 0.4l0 0-16.3 8.5 0 0c-1 0.6-1.6 1.6-1.6 2.9s0.6 2.3 1.6 2.9l0 0 0.1 0.1c0.1 0.1 0.3 0.1 0.4 0.2l15.8 7.4 0 0C44 53.9 44.5 54 45 54s1-0.1 1.4-0.4l0 0 13.1-6.8v11.8h2.1V45.7l1.2-0.6 0 0c1-0.6 1.6-1.6 1.6-2.9S63.7 39.9 62.7 39.4z" fill="#8a2be2" data-fill-palette-color="accent"></path></svg>